<svg id="Layer_1" data-name="Layer 1" xmlns="http://www.w3.org/2000/svg" viewBox="0 0 432 432"><defs><style>.cls-1{fill:#fff;}</style></defs><rect x="-0.74" y="-1.68" width="434.43" height="434.43"/><path class="cls-1" d="M420.28,134.71c-.18-4.35.83-8.78-.91-13.05a5,5,0,0,1,.24-2.66c1.52-6.51.22-13.13.72-19.68a1.73,1.73,0,0,0-.23-1c-2.2-3.28-2.78-7.25-5.17-10.6a90.76,90.76,0,0,0-10.06-11.51c-3.68-3.67-7.32-7.26-11.9-10-4.06-2.43-8.76-2.23-12.73-4.42-.28-.16-.93.54-1.42.54-6.23.09-12.51.52-18.69,0-2.66-.24-5.35-.9-8.07-.79-3.34.14-6.63,1.55-10,0-.81-.38-2.1.26-3.17.44a16.35,16.35,0,0,1-3.73.59c-7.07-.52-14.24,1.22-21.25-.89-.43-.13-1,.24-1.51.32a36.41,36.41,0,0,1-4.26.61c-6.38.27-12.68.74-17.92,5.07-.82.67-1.9,1-2.79,1.59a7.82,7.82,0,0,0-2.42,2c-1.62,2.51-4,4.11-6.18,6-5.35,4.67-10.26,9.71-11.86,17.2-.83,3.87-2.51,7.36-1.38,11.6.66,2.46,0,5.43-.62,8-.7,2.73.1,5.28.1,7.91,0,3.4.33,6.79.33,10.19s-.07,6.94-.36,10.39c-.37,4.34.72,8.77-1,13-.33.85.38,2.08.54,3.14.47,3.21,1.67,6.55,1.15,9.59A64.42,64.42,0,0,0,265,178c-.06,3.3.64,6.84-.35,9.83-.93,2.82.08,4.94.48,7.35.14.87.92,1.72.84,2.53-.38,4.31,1.73,7.68,3.86,11.08a14.19,14.19,0,0,1,1.7,2.75,14.56,14.56,0,0,0,7.22,7.9,19.58,19.58,0,0,1,6.69,6,15,15,0,0,0,8.35,5.82c3.89,1,7.79,1.49,11.69,2.2,4.94.91,9.62,1.27,14.49-.09a9.41,9.41,0,0,1,5.44,0c3.61,1.29,7.24.79,10.86.81,3.34,0,6.65-1.68,10,0,.6.3,1.7-.42,2.58-.6a5.81,5.81,0,0,1,2.64-.34c3.73,1.21,7.64.52,11.35,1.19,4.77.87,9.3,2.69,9.06,9,1.6,1.87.25,3.72.13,5.63-.14,2.3.81,4.64.79,7a61.35,61.35,0,0,1-.92,7.48,2.39,2.39,0,0,0,0,1.1,11.32,11.32,0,0,1,.23,7.33c-.65,2.43.58,5.31.72,8,.08,1.4-.58,2.83-.62,4.26-.07,2.51.08,5,.14,7.56,0,1.39.43,2.89.05,4.15a14.8,14.8,0,0,0,0,8,10,10,0,0,1,0,3.09,21.37,21.37,0,0,0-.47,3.75c.37,3.63-.76,6.78-2.41,9.92-1,1.94-2,3.05-4.48,3.18-2.64.13-5.43,2.07-7.8,1.56a14.3,14.3,0,0,0-7.9.21c-5-1.89-10.15-.31-14.91-1a90.65,90.65,0,0,0-9.65.07c-4.74.51-8.3-.57-9.91-5.5a3.08,3.08,0,0,0-1.08-1.23c-1.47-1.15-1.69-2.71-1.67-4.43.07-4.59.19-9.18.06-13.76-.08-2.88-1.35-5.93-.69-8.56a40.69,40.69,0,0,0,.71-8.68c.07-2,.19-3.7,2.05-5.17,1.33-1.05,2-3,2.87-4.54.09-.16-.31-.87-.53-.89a23.6,23.6,0,0,0-3.85-.11c-4,.29-7.95.78-11.93,1s-8.08.11-12.12.11c-3.86,0-7.73-.25-11.56,0s-7.73-1.68-11.71-.12c-1.13.45-2.71-.32-4.1-.37-.47,0-1,.43-1.44.67a4.78,4.78,0,0,0,.87.87,6.47,6.47,0,0,1,3,5c.53,4,.84,8.11,1.05,12.19.17,3.11.11,6.24,0,9.36s.63,6.24.22,9.51c-.62,4.88-.27,9.89-.24,14.85,0,7.54,1.06,14.8,6.15,20.91,1.38,1.66,2.13,3.89,3.64,5.38,3.89,3.85,8.08,7.4,12.1,11.14a16.72,16.72,0,0,0,8.06,4.22c3.16.69,6.25,1.69,9.38,2.53.86.23,2,.86,2.55.52,4.64-2.91,9.61,1.37,14.25-.77.33-.16,1,.47,1.48.57a6.36,6.36,0,0,0,2.67.26c3.42-1,6.95-.18,10.41-.83,1.7-.31,3.56.31,5.35.45a7.21,7.21,0,0,0,3.1,0,4.66,4.66,0,0,1,3.63-.08c1.06.36,2.39-.09,3.6-.13s2.46-.07,3.69,0c3.44.18,7,1,10.29.47,5.45-1,10.75-1.51,16.14,0a3.89,3.89,0,0,0,2.13-.16c6.46-2.09,12.33-5,16.93-10.32,1.89-2.17,3.89-4.76,6.3-6,6.82-3.56,9.34-10.27,12.1-16.36,2.35-5.16,2-11.29.69-17.15a19.59,19.59,0,0,1,0-9.26c1-3.41,1.81-6.44-.18-9.65a1.2,1.2,0,0,1-.06-1.06c2.17-3.84.14-8,.81-12,.9-5.48-.37-11.29-.16-16.94a27.48,27.48,0,0,0-.57-7.85c2.62-5-.78-10.29.89-15.33a2.79,2.79,0,0,0-.21-1.61,13.57,13.57,0,0,1-.09-9.6c1.23-3.19-2.35-6.35.16-9.46.14-.18-.08-.7-.21-1s-.42-.62-.55-.95c-.56-1.53-1-3.12-1.66-4.6-2.06-4.59-3.5-9.62-8.62-12.07-.78-.38-1.29-1.29-1.94-1.94-3.36-3.38-6.68-6.82-10.14-10.11a14.24,14.24,0,0,0-4.41-3.15c-6.27-2.41-12.89-3.3-19.55-3.76-4.09-.28-8.17,2.13-12.31.06a2.08,2.08,0,0,0-1.58.25c-1.74,1-3.34.8-5.21.1a9,9,0,0,0-4.85-.31c-3.41.77-6.7,1.37-10.11-.05-.67-.28-1.72.36-2.6.54-.69.15-1.54.55-2.08.3-3.7-1.71-7.61-.9-11.39-.87-3.47,0-6.29-1.1-8.06-3.75s-3.52-5.77-2.71-9.43a27.55,27.55,0,0,0,.2-3.29c.49-4.81-1.45-9.61-.08-14.42-1.88-3.36-.31-6.74.09-10.05a58.24,58.24,0,0,0-.08-7.93c0-2.94.3-5.94-.2-8.79-.45-2.54,1.19-5,.07-7.36-1.85-3.82-.25-7,1.25-10.37,1.37-3.08,4-4.63,6.59-6.24,2.17-1.33,4.34-2.14,7.06-1.27,1.67.54,3.65.24,5.48.12,5.07-.33,10.13,0,15.24-.94,4.22-.81,8.66.31,13,.76s6.85,3.07,10,5.07a1.67,1.67,0,0,1,.7,1.33c-.82,2.73,1.14,5.21.58,8a13,13,0,0,0,.34,4.32c1.21,7.67,1.75,15.19-3.73,21.73-1.06,1.26-.55,2.77.78,2.5,3.51-.72,7.08,1.12,10.56-.49a8,8,0,0,1,3.76-.37,110.12,110.12,0,0,1,11.35,1.12c5.4,1,10.71-2.72,16.13-.15.45.22,1.29-.56,2-.69.88-.18,2.05-.56,2.66-.17,2.74,1.78,5.26-.83,7.89-.24.05,0,.44-.87.33-1C420.33,143.8,420.48,139.25,420.28,134.71ZM304.91,130.1c.29-.11.65-.4.86-.31a4.06,4.06,0,0,1,1,.78l-.51,1Zm.32,7a15.94,15.94,0,0,1-1.63,2.07c-.27.34-.51.72-.76,1.08-.14-.48-.29-1-.41-1.46a7.14,7.14,0,0,1,0-1,10.13,10.13,0,0,1,1-1.88c.16-.23,1-.25,1.26,0S305.37,136.81,305.23,137.06ZM305,88.15l1.52,1.28-1.26,1.5c-.28-.53-.62-.89-.63-1.26A6.13,6.13,0,0,1,305,88.15Zm1.47,22.91c-1.44.51-2.06,1-2.57.85s-.91-.74-1.35-1.15c.53-.32,1-.87,1.59-.9S305.21,110.36,306.5,111.06ZM296,84.87a8.62,8.62,0,0,1,2.23-1.33c.12-.06.48.39,1.1.91-.9.62-1.66,1.23-2.5,1.7a5.5,5.5,0,0,1-1.49.35C295.53,85.94,295.59,85.23,296,84.87Zm2.54,5.2c-.84.24-1.43.54-1.54.42a4.82,4.82,0,0,1-1-1.72c-.05-.19.63-.58,1-.88C297.4,88.51,297.84,89.13,298.52,90.07Zm-.58,3.19a5.4,5.4,0,0,1,1.07.07,4.65,4.65,0,0,1,.92.46c-.21.29-.36.73-.64.84-1.94.78-3.73,1.71-4.81,3.64-.06.11-.71.07-.87-.1-.32-.35-.78-.89-.7-1.25C293.47,94.28,294.92,93.28,297.94,93.26Zm-5.52-6.37c.32-.08.75.35,1.39.7-.56.5-.88,1-1.23,1a1.21,1.21,0,0,1-.94-.76A1.25,1.25,0,0,1,292.42,86.89Zm-.12,14.65c2.75.34,4.67-1.53,6.73-2.85,1.14-.73,1.9-2,2.89-3a1.1,1.1,0,0,1,1,0,1,1,0,0,1,.41.89c-.67,2.59-1.33,5.19-2.16,7.74-.45,1.38-3.19,2.46-5.12,1.62-1.58-.68-2.46-.38-3.18.84-1.52,2.56-4.45,4.15-5,7.43-.07.43-1.39.88-2.14.89-.35,0-1-1-1-1.59,0-2.77,1.56-4.6,3.83-6s2.37-1.46,1.3-4.26C289.31,101.87,290.26,101.08,292.3,101.54Zm-6,51.9c-.81-2.36-3.45-1.53-4.81-2.86.19-1,.07-2.59.67-3a2.58,2.58,0,0,1,3.77.71c.34.51,1.08.75,1.63,1.13l2.42,1.75a25.08,25.08,0,0,1-2.3,2.31A1.6,1.6,0,0,1,286.29,153.44ZM287.41,180c-.57,1.18-.75,2.18-1.16,2.28a10.94,10.94,0,0,1-3.08,0c-.1,0-.27-.33-.26-.34A36.16,36.16,0,0,1,286,179.4C286.26,179.25,286.93,179.76,287.41,180Zm-1.54-49.21c1.51.18,3-.52,4.48,1a12.87,12.87,0,0,1,3,5.38,1.46,1.46,0,0,1-.29.93c-2-.34-3.81-.24-4.38,2.25-.43-.3-1.16-.54-1.22-.9a28.47,28.47,0,0,1-.08-3.07,3.59,3.59,0,0,0-.4-1.07c-.3.16-.82.26-.87.48-.39,1.61-.77,3.84-2.93,2.3-1.86-1.33,0-2.77,1-4.06A18.83,18.83,0,0,0,285.87,130.76Zm6.74-19.94,2.15-2,2,2.16-2.19,1.43Zm-2.22,68.9c1.69-1.64,3.6-2.91,6.11-2.68a2.23,2.23,0,0,1,1.28.73,1,1,0,0,1-.09,1c-1.94,1.45-3.91,2.83-5.9,4.25-1-.73-1.73-1-2-1.59A2,2,0,0,1,290.39,179.72Zm5.71-21.45c-2.72.14-3.35-1.42-4-3a16.68,16.68,0,0,1-.53-2,11,11,0,0,1,1.89-.08c.87.12,1.72.52,2.59.57,1.36.06,2.22.72,1.8,2A8.74,8.74,0,0,1,296.1,158.27Zm1.32-8.55a6,6,0,0,1,.85-1.29c.37.51.72.81.66.94a5.21,5.21,0,0,1-.77,1.06C297.9,150.19,297.37,149.85,297.42,149.72Zm0-11.69c-.12-.27-.45-.64-.45-1,0-2-.05-4-1.79-5.46-.28-.23-.35-1.29-.16-1.41,1.88-1.21.72-3.12,1.23-4.61.16-.44,1.21-1,1.57-.88,1.72.74,2.95,2.86,2.09,4.38-1.11,2-.52,3.36.31,5S299.74,137.88,297.4,138ZM285,102.15a1.21,1.21,0,0,1,.77-.93c.33-.06.74.37,1.39.75-.57.47-.9,1-1.23,1A1.23,1.23,0,0,1,285,102.15ZM288,91.26c.3,0,1.13,1.17,1,1.29-1.1,1.45-1.23,2.52.74,3.28.2.08.22.92.12,1.35-.05.21-.58.3-1.23.6-1.18-.78-3.12-1.37-3.71-2.61C284,93.26,285.47,91.63,288,91.26Zm-2.66,32c.95-2.17,5.69-1.85,6.94.27a1.48,1.48,0,0,1-1.73,2.29,1.75,1.75,0,0,0-2.14.87c-.92,1.29-1.68,2.69-2.5,4l-2.85.74c-.12-1-.7-2.35-.28-3.05A43.43,43.43,0,0,0,285.29,123.25Zm-6.76-11.19a11.44,11.44,0,0,1,2.46.79,25.42,25.42,0,0,1-2.72,2.23,2.66,2.66,0,0,1-1.15-1.29A1.29,1.29,0,0,1,278.53,112.06Zm-3.35,8.21c1.2-.79,2.71-1.24,3.7-2.22s1.23-3.09,3-2.41c.79.31,1.1,2.14,1.4,3.34a1.89,1.89,0,0,1-.57,1.68,34.42,34.42,0,0,1-3.92,1.43,22,22,0,0,1-3.37-.51C275.22,121.51,275,120.37,275.18,120.27Zm2.58,15.55c-.3.1-.62.31-.9.26a6.31,6.31,0,0,1-1.27-.45l1-1.23Zm-2.93,7a48.39,48.39,0,0,1,4.68,1.32,1.78,1.78,0,0,1,.46,1.65c-.22.49-1.16,1.13-1.53,1a30.16,30.16,0,0,1-4.15-2.05,1,1,0,0,1-.36-.87A4.73,4.73,0,0,1,274.83,142.81Zm6.59,7.77a17.12,17.12,0,0,1-1.93,2.44c-.44.4-1.66.73-1.79.56a6.47,6.47,0,0,1-1.23-2.74c-.05-.35,1-1.26,1.53-1.22A17.13,17.13,0,0,1,281.42,150.58Zm-8.24,5.68c-.07-.11.95-.87,1.76-1.6.78,1,1.69,1.71,1.88,2.58.11.47-1,1.21-1.53,1.84A26.87,26.87,0,0,1,273.18,156.26ZM275.86,190c-.34-.07-.57-.62-.84-1,.34-.27.68-.76,1-.76s.65.5,1.22,1C276.6,189.63,276.18,190.05,275.86,190Zm3.47-8.78a12.81,12.81,0,0,1-2.08-2s.69-1,.9-.93a20.57,20.57,0,0,1,2.92,1.28A14.87,14.87,0,0,1,279.33,181.2Zm1.13,7.72c-.17-.46.39-1.21.63-1.83a17.51,17.51,0,0,1,2.4,1.74c.12.12-.51,1-1,2C281.52,190,280.71,189.55,280.46,188.92Zm6.47,23.22a13.36,13.36,0,0,1-3.09-.46,4.77,4.77,0,0,1,.5-1.42,9.76,9.76,0,0,1,1.51-1.27h0c1.19-.06,2.34.08,2.18,1.63C288,211.19,287.35,212.11,286.93,212.14Zm24.8,15.25a21.14,21.14,0,0,1-1.39-2c0-.06.84-.84,1-.77a7.45,7.45,0,0,1,1.28,1.29C312.2,226.57,312,227,311.73,227.39Zm7.12.13c-.59-.81-1.81-1.83-1.63-2.37.3-.88,1.52-1.46,2.47-2.26.67.72,1.33,1.25,1.26,1.38C320.32,225.39,319.57,226.45,318.85,227.52Zm11.6-2.29a28.17,28.17,0,0,1-4.4,2.41c-.67.25-1.65-.33-2.5-.54a12.11,12.11,0,0,1,1.17-2.23,14.66,14.66,0,0,1,2.25-2.13c1.44-1.17,3.1-.38,3.5,1.49C330.47,224.68,330.58,225.15,330.45,225.23Zm-2.38-5.87,1.45-1.2c.1.3.35.67.26.88a4.49,4.49,0,0,1-.85,1Zm10.78,114.38c.42-.11,1.07.66,1.62,1L338.9,336l-2-.86C337.54,334.65,338.12,333.92,338.85,333.74Zm-18.33-4.39a5.14,5.14,0,0,1,1.15.93c.09.13-.29.6-.45.92a4.69,4.69,0,0,1-1-.88C320.09,330.16,320.38,329.74,320.52,329.35Zm-14.73-20.76a12.29,12.29,0,0,1,.83,4.05c0,.31-1.27.66-2,1,.2-2.06-1.13-2.06-2.69-2.2-1.83-.16-2.14-1.12-1-2.38a9.92,9.92,0,0,1,1.56-1.48C303.9,306.61,305.13,306.92,305.79,308.59Zm-13.85-24.33a3.7,3.7,0,0,1,1.51-.22c.41.1.75.56,1.08.9.08.09,0,.34,0,.51a6.17,6.17,0,0,1-1.3-.16,11.53,11.53,0,0,1-1.42-.68C291.85,284.48,291.88,284.27,291.94,284.26Zm.07,6.25,1.54,0a17.53,17.53,0,0,1-1.15,2.75,1.58,1.58,0,0,1-1.36.33,20.18,20.18,0,0,1-1.53-2.64,12.31,12.31,0,0,1,1.45-.48A4.1,4.1,0,0,1,292,290.51Zm.3,12.18c-.65.38-1.33.7-2,1,0-.16,0-.36.11-.46.49-.49,1-.94,1.53-1.4A8,8,0,0,1,292.31,302.69Zm-3.2-16.49a25.6,25.6,0,0,1,2,1.61,3.2,3.2,0,0,1-.91.48c-1.24.18-2.16-.14-2.11-1.64v-.51C288.45,286.14,288.87,286,289.11,286.2ZM287,282.93c0-.29.31-.6.47-.9.17.29.47.58.49.88.07,1,0,2.11.05,3.17C286.33,285.5,287.09,284.07,287,282.93Zm-3.39,9.78a2.89,2.89,0,0,1-.91-.4,9.85,9.85,0,0,1-1-1.23c.28-.13.68-.45.83-.36a2.79,2.79,0,0,1,1,1A2.44,2.44,0,0,1,283.65,292.71Zm-1.12,4.46c.09,2.25-1,3.3-3.25,3.25C279.26,298.24,280.27,297.07,282.53,297.17ZM281,285.41c.68.36,1.16,1.11,2.2,2.23-1.43.29-2.2.64-2.89.51-.35-.06-.86-1.11-.71-1.5S280.74,285.3,281,285.41Zm-3.24,15.28c.09-.24,1-.16,1.55-.22a15.45,15.45,0,0,1,1.52,2.14c.27.56.53,1.52.25,1.9-1.31,1.84-2.43,4-5.12,4.18a1.59,1.59,0,0,1-.93-.55C275.84,305.63,276.72,303.13,277.72,300.69ZM276,314.76c-.32-.13-.77-.19-.93-.43a10.6,10.6,0,0,1-.75-1.68l1.72-.59a9.9,9.9,0,0,1,.35,1.77C276.36,314.13,276.1,314.45,276,314.76Zm-4.26-10.88a5.75,5.75,0,0,1,1.89-1.1c.39-.06.91.67,1.68,1.31-1.07.64-1.72,1.26-2.4,1.31C272.51,305.43,272.08,304.42,271.69,303.88Zm6.44,33.42a1.35,1.35,0,0,1-1.27-.21,38.4,38.4,0,0,1-2.7-3.88,1.55,1.55,0,0,1,0-1.39,1.71,1.71,0,0,1,1.39-.46c1,.16,3.59,3.66,3.58,4.81C278.82,336.53,278.56,337.09,278.13,337.3Zm4.63,8.9a5.13,5.13,0,0,1-1.11-1.63c-.07-.2.53-.65.82-1l1.61,1.91C283.39,345.88,282.83,346.27,282.76,346.2Zm26.15,11.51a1.92,1.92,0,0,1-1,.92c-.24,0-.89-.62-.85-.89s.53-.76.92-1a2.39,2.39,0,0,1,1.05-.08A2.5,2.5,0,0,1,308.91,357.71Zm26.15-3.43c-1.79-2.14-4.19.63-6.06-.74,0,0-.74.63-.68.75a12.09,12.09,0,0,0,1.38,2.26c1.47,1.8,1.49,1.75-.62,2.32-.81.21-1.88.39-2.27,1-.53.77-.78,1.12-1.52.4s-1.61-1.5-2.34-2.31c-1-1.06-1.76-1.53-3.22-.56-2,1.34-2.91-.21-3.57-1.86-1.47-3.65-2.93-7.32-4.46-10.95-.14-.32-.81-.42-1.24-.62-.09.34-.35.73-.26,1a40.83,40.83,0,0,0,1.6,4c.44.94.67,1.69-.51,2.19s-1.07.76.1,1.06c.66.17,1.86.6,1.84.78-.46,3.54,2.52,5,4.19,7.29a1.47,1.47,0,0,1,0,1.41,1.6,1.6,0,0,1-1.41.18c-2.39-.77-4.79-1.55-5.7-4.33-.13-.39-.85-.58-1.31-.86a28.7,28.7,0,0,0-1.25-3.51c-.66-1.32-2.17-1.52-3.9-.68a8.83,8.83,0,0,0-.91.59c-.24-2.55-4.28-2.54-3.83-5.25.6-3.63-3-4.69-4-7.33-.08-.23-1.11-.41-1.46-.2a2.41,2.41,0,0,0-1.14,1.48,6.22,6.22,0,0,0,.2,3.22c.88,1.93-.16,2.92-1.41,3.95,1.33,1.14,2.7,2.23,4,3.44a4.49,4.49,0,0,1,1.46,2.16c.18,1.1.75,2.65-1,3.15-1.42.4-3.48-.9-3-2.13,1-2.27-.69-2.69-1.72-2.83-2.29-.31-3.19-2-4.35-3.5-1.31-1.65-1-2.08,1.39-2.47a6.61,6.61,0,0,1,1.09,0c-1.16-1.6-2.09-3.49-3.56-4.72-1-.84-2.21-2.74-4.2-1.31a9.7,9.7,0,0,1-2,.87,7.13,7.13,0,0,1,0-2.69,10.61,10.61,0,0,1,2-2.55c1.71-2,3.18-3.93.12-6,.31-2.41-3.55-4-1.31-6.8-1.21-1.71-2.41-3.42-3.66-5.11a2.73,2.73,0,0,0-.85.5c-.23.24-.58.72-.49.86.38.62,1.07,1.08,1.31,1.72a4.71,4.71,0,0,1-.09,1.89c-.63-.24-1.46-.3-1.86-.75-1.49-1.67-1.41-2.63,0-5,.54-.92,1-1.92,1.42-2.89.8,0,1.39,1.29,2.51-.31s2.51-1,3,.84c1.22,4.84,2.15,9.8,5.2,14a3.38,3.38,0,0,0,.87.64,4.93,4.93,0,0,0,.29-1.38c-.29-3.12-3.19-5.83-1.44-9.27.59-1.15-.47-1-1-1.29-1.4-.88-2-1.86-1.08-3.63.4-.75-.16-2-.19-3a4.56,4.56,0,0,1,.23-1.79c4.67-.41,0-1.87.26-2.79.14-.53-.63-1.25-.75-1.92,0-.24.78-.94,1-.86,2.46,1,2.54.22,1.28-1.65s-1.12-4.3-3.54-5.16l1.08-4.37c2,1.84,4.11,3.61,6,5.58.37.39.1,1.58-.12,2.33-.37,1.22-.92,2.37.72,3.07a67.94,67.94,0,0,0,2.48,7.07c.82,1.76-.15,1.45-1.22,1.83-2.3.8-2.1.86-.85,3.42.6,1.22.5,2.77.77,4.17.05.29.35.53.53.8.3-.21.81-.38.86-.63.53-2.63,2.16-3.74,4.76-3.89.48,0,1-1,1.33-1.57a1,1,0,0,0-.32-.94c-3.64-2.33-4.37-2.86-3.56-4.15,1.23-1.94-.16-3.15-.42-4.6-.82-4.52-.9-4.5.89-9.64.77-2.21-.32-3.75-1.92-5.08-.23-.49-.47-1-.71-1.46.52-.12,1.1-.45,1.55-.32,2.76.76,4.12,2.8,4.69,5.48.37,1.75.64,3.53,1.13,5.25a13.34,13.34,0,0,0,1.38,2.78c.32.58,2.26.22,1.05,1.6a2.54,2.54,0,0,1-2.27.52c-1.36-.52-2.71-1.82-1.51,1.12a5.24,5.24,0,0,1-.08,3.2c-.82,2.75-.93,2.8,1.68,3.88a28.65,28.65,0,0,0,4.07,1.09,8.06,8.06,0,0,1-.46,2.05c-1.39,2.79-1.36,3,.37,5a4,4,0,0,1,1.18,2.32c-.08,2.49.17,4.4,3.42,4,.27,0,.92.7.92,1.08,0,2.21,1.11,1.47,2.34,1.11.56-.16,1.32.32,2,.51-.37.76-.56,1.84-1.17,2.21a10.33,10.33,0,0,1-4,1.46c-1.54.16-2.4.55-2.43,2.21,0,.22-.6.57-1,.62a11.54,11.54,0,0,1-1.95,0c.28,1,.55,2,.89,3a1.38,1.38,0,0,0,.93-.12c.27-.19.35-.62.58-.89a17.24,17.24,0,0,1,7.35-4.87c2.07-.78,3.55-1.73,4.84.9a2.28,2.28,0,0,0,1.86,1c5.69-1,5.77,3.91,7.46,7.07a10.73,10.73,0,0,1,1.06,3c.44,2.36,2.83-.77,3.14,1.13.18,1.11-.64,2.48-.27,3.43.27.68,1.76.88,2.71,1.29.4.57.83,1.13,1.18,1.73a8.41,8.41,0,0,1,.51,1.27C335.71,354.21,335.17,354.42,335.06,354.28Zm5.85-2.33c-1.85,1.79-3,1.21-4.52-.28-.42-.42-1.3-.39-2-.54-.26-1.85,1.06-2.81,2.21-3.86,1.33-1.23,2.16.44,3.26.55a6.64,6.64,0,0,0,0-1.61c-.62-2.5-.82-2.59-3.15-1.72s-2.43.91-3.38-1.37c-.33-.81-.57-2.13-1.13-2.29-2.73-.82-3.26-3.1-4-5.3-.5-1.5-.95-3-1.43-4.53,2-.42,2.78,1.63,4.37,2.16,2.4.81,2.61,4,5.35,4.95,2.29.77,4.18,2.7,6.27,4.09.29.19.73.17,1,.36a2.36,2.36,0,0,1,1.21,3.11c-.53,1.84,2,.49,2.53,1.58.31.61.94,1.2.94,1.79,0,.34-1,1-1.52,1A7.43,7.43,0,0,0,340.91,352Zm7.9,3.4a15.91,15.91,0,0,1-2.15-2,3.82,3.82,0,0,1,.81-1c.83.48,1.6,1.07,2.65,1.81C349.46,354.8,348.89,355.41,348.81,355.35Zm0-15.6c-.32-.45-1-1-1.08-1.6-.23-1.39,1.3-2.65,2.93-2.36a2.08,2.08,0,0,1,1.25,1.4C352.15,338.23,350.22,339.86,348.85,339.75Zm9.25,21.07c-.07,0-.46-.76-.38-.84a4.73,4.73,0,0,1,1.51-1.1,4.09,4.09,0,0,1,1.56,0c-.25.45-.41,1-.8,1.29A5.43,5.43,0,0,1,358.1,360.82Zm20.52-.52c-1.28.92-2.57,1.84-3.93,2.64-.31.19-1.23,0-1.33-.2-.25-.6-.42-1.85-.24-1.93a50.06,50.06,0,0,1,5.32-1.87c.19-.06.52.32.79.5A3.41,3.41,0,0,1,378.62,360.3Zm-1.78-5.17a10.9,10.9,0,0,1-1.49-3.32c0-.06.67-.57.8-.49,2.23,1.39,3.06-.66,4.39-1.66a14.83,14.83,0,0,1,4.59-2.76c1.57-.42,3.12-.27,4-2.11.18-.39,1.6-.19,2.51-.23a45.17,45.17,0,0,1-7.75,6.72c-1.65,1.09-3,2.68-4.61,3.81A2.58,2.58,0,0,1,376.84,355.13Zm9.18.52c-1.19,1-2.37,2-3.64,2.83-.15.1-.91-.45-1.18-.85a2.81,2.81,0,0,1-.31-1.39c1.58-.56,3.19-1,4.81-1.48.08,0,.24.24.36.37S386.11,355.57,386,355.65Zm2.27-2.32a8.46,8.46,0,0,1-.79-1.19c1.16-1,2.4-1.95,3.63-2.89.15.27.5.69.43.79C390.7,351.2,391,353.41,388.29,353.33Zm15.36-11.39a16,16,0,0,0-5.62,5.51c-.47.8-1.68,1.16-2.37,1.6-.67-.24-1.18-.27-1.28-.49-.19-.42-.36-1.18-.15-1.39,1.91-1.84,2.23-5.59,6.26-5,.69.09,1.57-1.67,2.46-2.47.33-.29.93-.27,1.41-.39.11.47.41,1,.29,1.41A2.36,2.36,0,0,1,403.65,341.94Zm-5.06-5.22c.11-1.48,1.63-1,2.59-1,.55,0,1.07.51,2.15,1.08-1.34,1-2.19,2-2.92,1.93A2.77,2.77,0,0,1,398.59,336.72Zm7.56-11c-.27.05-.61-.26-.92-.41a14.12,14.12,0,0,1,1.84-1.55c.17-.11.73.42,1.81,1.08A26.08,26.08,0,0,1,406.15,325.74Zm.47-7.53c.74-1.56,2.37-1.3,3.8-1.22a15.8,15.8,0,0,1-1.63,3.17c-.45.55-1.45.65-2.2,1C406.58,320.14,406.25,319,406.62,318.21Zm1,20.49a1.4,1.4,0,0,1-.34-.35c-.07-.15-.12-.41-.05-.5,1.15-1.31,2.32-2.61,3.52-3.88a12,12,0,0,1,1.09.79C410.42,336.12,409,337.42,407.65,338.7Zm3.82-21.8c-.27.16-.68.06-1,.08,0-.35-.07-.77.09-1s.62-.84,1-.9.89.61.85.87S411.86,316.67,411.47,316.9Zm1.73-13.38c-.59-.13-1.51-1-1.52.18,0,3.88-3.3,4.33-5.69,5.59-1.11.58-1,1.3-1.06,2.18,2.14.36,3.82-.62,5.37-1.91a16.88,16.88,0,0,1,1.49-1.33,1,1,0,0,1,1,0,1.36,1.36,0,0,1,.24,1.17c-1.32,2.62-2.7,5.16-6.17,5.41a4.3,4.3,0,0,0-2.4,1c-1.08,1-2,1.48-3.3.39-.22-.19-.92-.23-1-.11-2.26,4-2.95.34-4.22-.8a1.59,1.59,0,0,0-1.45-.25,1.57,1.57,0,0,0-.39,1.37c.13.68.76,1.3.79,2,.06,1.72.62,1.6,1.95,1,.9-.43,2.25-.48,2.48,1.12.2,1.36-.61,1.66-1.81,2.1-2.83,1-2.85,1.41-.6,3.43a13.36,13.36,0,0,0,3.11,1.92,15.49,15.49,0,0,0,2.48.75c-.51.89-.89,2.44-1.55,2.57-3.07.6-4,4-6.77,4.83-.83.26-1.67.5-2.5.75.19.66.32,1.83.59,1.86,1.92.23,3,.94,2.74,3.1a2.82,2.82,0,0,1-3.36,2.72c-.55-2.09-2.67-2.21-4.11-3.15a2.22,2.22,0,0,0-2,.3c-1.51,1.22-3.62,2.4-4.11,4-.93,3-4,2.22-5.54,3.94a1.92,1.92,0,0,1-1.7-.37c-.76-1.94-1.79-1.3-2.94-.51-.41.29-.87.53-1.3.79a8,8,0,0,0,1.47.5c2.72.37-.27,1.85.57,2.84,1.21,1.43.38,1.9-1.06,1.14-1.2-.63-1.68.28-2.17.88-2.08,2.52-4.93,3.39-7.95,3.95.59-2.43-2.45-4.7-.31-7.19-.49,0-1.33-.24-1.41-.07-1.08,2.12-2.34,2.2-3.51.24a4.17,4.17,0,0,0-2.29-1.93c-2-.85-2.42-2.32-1.31-4.23.87-1.5,2.28-2.69,3.15-4.19.54-.93.26-2.95.82-3.15,1.47-.52,3.2-.32,4.83-.4a2.46,2.46,0,0,1,1.61-2.47c2.91-1.56,5.85-2.8,8.32-5.44a19.25,19.25,0,0,1,9.42-5.33c.18-.05.45,0,.53-.1,1-1.38,1.7-3.45,3-4,1.78-.75,3.33-1,3.67-3.31a4.28,4.28,0,0,1,1.91-2.41c3.43-2.27,7.12-4.19,9.5-7.75a2,2,0,0,1,.84-.7c2.27-.95,4-3.19,6.81-2.85-.59-3.41,2.63-3,4.23-4.29,1.42-1.11,2.27-.52,2.94.85a14.68,14.68,0,0,1,.94,2C415,303.27,414.38,303.79,413.2,303.52Zm-30.31-58.15a2.19,2.19,0,0,1,1,.1c.39.23.85.61.92,1s-.61.9-.86.86-.75-.54-1-.93A2.23,2.23,0,0,1,382.89,245.37Zm0,0h0a19.45,19.45,0,0,1-2.73,3,3.08,3.08,0,0,1-2.63.48c-.74-.39.18-2.78,1.2-3.44a10.24,10.24,0,0,0,2-1.39c.8-.86,1.21-2.53,2.75-1.49C383.75,242.72,383.08,244.38,382.85,245.37Zm1.71,38.36c1.11-1.13,2.48-2,3.64-3.07,2.45-2.29,4.6-4.76,8.11-5.85,1.69-.52,3.14-2.75,4.07-4.54.59-1.12.94-1.8,2.21-1.8a5.24,5.24,0,0,0,5.11-3.27c.75-1.55,1.8-.26,2.72,0,.08,1.67.24,3-2.21,3.51-3.07.59-4.56,3.56-6.51,5.73-.33.37-.43,1.38-.63,1.38-2.74,0-3.64,1.84-4.82,3.89-1,1.8-3.58,1.94-5.13,3.73-2.31,2.67-6.44,3.09-8.95,5.83-.12.13-.75,0-1-.2s-.46-.77-.35-.91A56.55,56.55,0,0,1,384.56,283.73Zm-2.33-7.88a4.93,4.93,0,0,1,1-.58c.61.79,1.14,1.64,1.69,2.48l-1.27.74C383.15,277.61,382.66,276.75,382.23,275.85Zm4.26-2.51a12.38,12.38,0,0,1,1.55-2.78,6.13,6.13,0,0,1,1.81-1.1c.62.69,1.55,1.29,1.47,1.71a9.5,9.5,0,0,1-1.43,3.9,3.23,3.23,0,0,1-2.76.92C385.79,275.67,386.07,274.34,386.49,273.34Zm17.56-13.83a2.35,2.35,0,0,1,2.71-2c1.15.07,1.71.9,1.34,1.79s-1.27,1.24-2.17,2C405.06,260.52,404,259.93,404.05,259.51Zm-16.82,47.85c1.7-.49,2.26-1.62,3.24-2.5,1.67-1.51,3.08-3.31,4.72-4.86.71-.67,2.08-1.65,2.5-1.4.94.56,1.48,1.8,2.46,3.15-1.08.85-1.78,1.88-2.52,1.9-1.89.08-3.36.62-3.74,2.51-.59,3-3.53,2.79-5.33,4-1.28.86-3.7-.07-3.74,2.78,0,.23-1.89.54-2.91.61-.34,0-.81-.53-1-.93a1,1,0,0,1,.25-1C383.11,310.11,385,308,387.23,307.36Zm-6-3.48c0-.24,1.22-1.11,1.55-1,.59.28.94,1.11,1.67,2.09-1,.4-1.82.95-2.05.77A3.38,3.38,0,0,1,381.28,303.88Zm13.59-13.75c-1.85,2-5.54,2.41-5.55,6.19,0,.27-1.32.91-1.74.73a25.31,25.31,0,0,1-3.45-2.14,25.13,25.13,0,0,1,2.38-2.85,15.27,15.27,0,0,1,2.36-1.31c.59-.36,1.38-.72,1.62-1.28,1.59-3.71,4.86-4.79,8.36-5.57.5-.11,1.19-.28,1.38-.64.45-.83.76-1.86,1.88-1.25.43.24.56,1.26.61,1.94a32.23,32.23,0,0,1,0,3.26A9.07,9.07,0,0,0,394.87,290.13Zm11.74-3.52c1.12,1-.23,1.9-.93,2.6a5.44,5.44,0,0,1-1.75.82l-1.2-2.81a3.88,3.88,0,0,1,1-.43C404.68,286.66,406.11,286.15,406.61,286.61ZM404.12,279c-.14-.39.38-1.44.72-1.49a10.18,10.18,0,0,1,2.94.53c-1.07,1.12-1.56,1.86-2.24,2.2C405.29,280.32,404.33,279.52,404.12,279Zm-3,16.15c3,1.58,3.09-2.67,5.32-2.59.15,0,.3-.2.46-.28,2.66-1.26,3.57-.65,3.52,2.45.19,1.67-.42,2.61-2.42,2.5-2.3-.12-4.76-.67-6.52,1.59-.09.11-.79-.1-.78-.12C400.85,297.48,401,296.3,401.16,295.12ZM380,281.35l-1.17-1.42a2.42,2.42,0,0,1,.9-.26,7.08,7.08,0,0,1,1.36.36Zm-.78,17.53,1.25,1.67c-.53.33-1.07.93-1.58.9s-.92-.72-1.38-1.12Zm.55,17.15c-.68.37-1.11.79-1.44.73s-.81-.68-.75-1a1.31,1.31,0,0,1,1-.78C378.9,315,379.23,315.53,379.79,316Zm30.87-42.13c0-.33.54-.65,1-1.2.36.67.78,1.11.71,1.44a1.23,1.23,0,0,1-1,.74A1.25,1.25,0,0,1,410.66,273.9Zm3.52-11.84c.13,0,.36.31.34.34-1,1.47-2,3-4.07,2.77,0-.17,0-.38.12-.48C411.65,263.64,412.26,261.93,414.18,262.06Zm-5-31a2.82,2.82,0,0,1-1,1,2.39,2.39,0,0,1-1,.08,3,3,0,0,1,.41-.89,10.6,10.6,0,0,1,1.22-1C408.92,230.52,409.24,230.91,409.15,231.06ZM407,226.37c-.32,0-.65-.51-1.22-1,.68-.36,1.11-.78,1.43-.71s.56.62.83,1C407.7,225.88,407.35,226.37,407,226.37Zm-24.18-27.11c.22-.07.67.53,1,.82l-1.89,1.64a7.21,7.21,0,0,1-.75-1.34A5.22,5.22,0,0,1,382.82,199.26Zm-4.43-1.08c.31-.06.73.38,1.39.76-.58.49-.91,1-1.24,1s-.92-.48-.93-.77A1.26,1.26,0,0,1,378.39,198.18Zm-42.75-.05c.25,0,.59.67,1.23,1.47a14.14,14.14,0,0,1-2.74.43c-.26,0-.49-.77-.73-1.18A11.22,11.22,0,0,1,335.64,198.13ZM333.1,217c1-.13,3.24,1.3,3.24,2,0,2.59,2,3.65,3.27,5.18,1,1.23,2.89,1,4.3-.29.22-.19.19-.65.28-1a5.42,5.42,0,0,0-.87-.19,7.05,7.05,0,0,1-2.42-.17,1.37,1.37,0,0,1-.08-2.53c.62-.38,1.3-.67,1.94-1,1.86-1,1.8-1,.1-2.47a3.73,3.73,0,0,1-1.33-2.27,2.3,2.3,0,0,1,1.39-1.79c.76-.14,1.74.85,2.5.7,2.26-.46,2.82,2.91,5.3,2,1.66-.58,3.55-.5,5.32-.79.39-.07.71-.48,1.07-.73-.39-.38-.73-1-1.16-1.08a19.64,19.64,0,0,0-4.33-.18c-3.29.32-3.6.12-4-3.5-1.18-.25-2.66-.13-3.46-.82-1.23-1-1.89-1-3,0a3.27,3.27,0,0,1-2.42.68,2.27,2.27,0,0,1-2.08-2.63c.09-.62,1-1.15,1.61-1.65a17.14,17.14,0,0,1,1.6-1.07c-2,.15-2.48-.9-2-2.58a1.43,1.43,0,0,1,1.24-.61c1.82.6,1.64,1.82.81,3.15,2.25-.47,4.49-.91,5.55-3.4.66-1.57,2.12-.82,3.26-1a2.75,2.75,0,0,1,2.22-3.25,39.28,39.28,0,0,1,5.24-1,1.67,1.67,0,0,1,2,1.86c0,1,.4,2,.47,3,.16,2.25,2.35,1.19,3.39,2,.19.16,1.65-.62,1.85-1.2,1-2.81,3.3-3.6,5.8-4.3,2.77-.76,4.62-.38,4.07.51s-1.93,1.14-2.94,1.68a4.25,4.25,0,0,1-1,.5c-1,.23-2.57,0-2.17,1.61s1.5,1.45,2.95.87c2-.77,3.95,2.19,6.16.21.28-.24,1.34,2.39,1,3.1-1.15,2.19-3.42,3.74-3.69,6.43,2.19-.73,3.06-3.73,5.87-3.43.11,0,.35-.24.36-.38.21-4.63,4-3.56,6.73-4.28.33-.09.59-.46.93-.54a3,3,0,0,1,1,.13c-.05.3,0,.69-.17.88-.85.94-1.8,1.8-2.64,2.75a4.57,4.57,0,0,0-.59,1.26,3.83,3.83,0,0,0,1.46-.14c2.19-1.23,4.31-2.57,6.52-3.77.24-.13.91.31,1.24.63.13.12,0,.71-.2.95s-.65.29-.92.51c-2.66,2.18-2.67,3.38.55,4.21,3.4.87.89,2.25.76,3.46,1.76-.44,2.58,1.08,3.78,1.81a18.33,18.33,0,0,1,2.2-3.5c.4-.43,1.58-.11,2.41-.12a6.44,6.44,0,0,1-.28,1.89c-.3.64-1.06,1.07-1.32,1.71a24,24,0,0,0-.89,3.28c-1.83-1.4-4.16,1.37-5.9-.71a28.53,28.53,0,0,0,1.47,5.1c.68,1.36,1.67,2.22,3.15.17a5.3,5.3,0,0,1,5.32-1.94c.79-.94,1.55-1.93,2.43-2.79.15-.14.94.19,1.24.49s0,1-.18,1.08c-1.13.49-2.32.84-3.48,1.23-.16,1,.07,2.54-.53,3.06-1.27,1.1-1,2.39-1.31,3.66-.26,1-.37,2,.82,1.93,2-.18,1.86,2,3.19,2.37.08,1-.05,2.31,1.62,2,.84-.16,1.62-.65,2.46-.81.3-.06,1,.57,1,.66-.58,1.46-.95,3.17-2,4.26a3,3,0,0,1-4.14.56,21.57,21.57,0,0,1-.14,3.22c-.31,1.72-1,1.88-2.92.92a3.6,3.6,0,0,0-1.2-.14c0,.36-.07.73-.11,1.09-.45,4.34-.48,4.39-4.19,2.27-.88-.51-1.12-.48-1.46.47a15.93,15.93,0,0,1-1.48,2.91c-.51.84-1.09,1-2.22.64-1.42-.4-2.52-.07-2.11,2.27.52,2.94-2.52,4.48-4.4,4.47-2.77,0-4.45,1.57-6.62,2.42a3.68,3.68,0,0,1-1.46-.09c.12-.32.25-.63.35-1a5.39,5.39,0,0,1,3.28-3.41,1.85,1.85,0,0,0,.86-3.1c-.66-.93-.42-1.65.82-2,2.64-.65,5.21-1.45,7.29-3.33a5,5,0,0,1,.93-.53c-.42-.21-.83-.44-1.27-.61a13.62,13.62,0,0,0-3.06-1c-1.41-.16-2-.83-1.83-2.12.24-1.67-.87-2.12-2-2.77s-1.95-.87-2.5.64a14.3,14.3,0,0,1-1,1.93c-.49.86-.72,2.39-2.16,1.61a2.14,2.14,0,0,1-.8-3.31,43.9,43.9,0,0,1,7.66-6.85c1.08-.7,1.73-1.65,2.69-2.34a7.21,7.21,0,0,0,.89-.86,2.74,2.74,0,0,0-1-.28,2.92,2.92,0,0,1-3.41-2c-.31-.72-1-1.66-2-.46-1.49,1.71-3.05,1.67-4.77.17a5.21,5.21,0,0,0-2.4-1c-.31,0-.82.5-1.08.88a1,1,0,0,0,.36.87,11.41,11.41,0,0,0,1.55.42,1.78,1.78,0,0,1,.89.53c.72,1-.11,3-1.74,4.16-1.35,1-3.23,1-3.84-.29-.23-.49.36-1.48.76-2.13.69-1.1,1-2-.7-2.29-.51-.09-1.25-.17-1.46-.52a12.4,12.4,0,0,1-.89-2.46c-1.06.65-2.5,1.06-3.09,2-1.25,2-2.58,2-4.35,1-1.07-.6-2.2-1.51-3.31-1.52s-2.29,1-3.49,1.36c-.42.14-1-.23-1.51-.37a2.77,2.77,0,0,1,.5-.88,28.56,28.56,0,0,0,3-2.32c.32-.33.17-1.3-.06-1.86-.14-.34-1.12-.75-1.22-.64-2.2,2.28-5.43,1.69-8,2.92a4.27,4.27,0,0,0-2.05,1.61c-1.1,2.53-3.17,2.06-4.48,1-2.19-1.8-4.11-2.06-6.46-.64-.14.08-1.28-1-1.21-1.17,1.28-2.1,1.06-4-.06-6.17C331.84,219.29,331.48,217.23,333.1,217Zm-21.77-26c2.52-.64,4.06-1.1,5.16,1.62.12.29.53.51.85.67,2,1,2.34,1.69,1.29,3.1-.77,1-1.78,1.84-2.55,2.85a1.5,1.5,0,0,0-.09,1.43,1.62,1.62,0,0,0,1.44.45c.82-.28,1.5-.93,2.3-1.28,1.63-.7,3.28-1.36,5-1.91.43-.14,1,.22,1.53.35a6.8,6.8,0,0,1-.71,1.27c-.73.83-1.56,1.56-2.27,2.39a3.24,3.24,0,0,0-.36,1.2c.51-.1,1.3,0,1.48-.33,1.19-2,4.4-1,5.13-3.61.51.35,1.51.88,1.46,1-.49,1.29-1.77,2.6-1.64,3.76.24,2.05,0,2.72-2.07,2a1.23,1.23,0,0,0-.42.75c0,.31.29.85.48.86,2.62.16,3.06,1.18,1.7,3.43-.33.54.5,1.69.47,2.55a2.08,2.08,0,0,1-1,1.57,2.21,2.21,0,0,1-1.88-.38,4.55,4.55,0,0,1-1-1.84c-1.25-3-1.45-3.1-4.06-1.43-.94.6-1.54.85,0,2.11,2,1.65,3.24,4.24,4.67,6.52.56.91-1.92,3.26-3.09,2.89-.32-.1-.66-.84-.63-1.26.22-3.08.19-3.24-2.45-2.28-3.12,1.14-1.28-.61-1.14-1.62a6.16,6.16,0,0,0-.45-2c-.64.18-1.62.14-1.87.56-2,3.16-5.08,2.31-7.93,2.46a5.44,5.44,0,0,0-1.46.55c.47.26.95.49,1.4.78s.7.39.82.69a1.69,1.69,0,0,1,.09,1.33,1.55,1.55,0,0,1-1.27.59c-3.95-1.07-3.92-1.06-7.18,1a1.9,1.9,0,0,1-1.82-.07,3.54,3.54,0,0,1-.81-2.27c.07-1.59,1.21-3.83.53-4.64-2.69-3.2-.86-6.42-.55-9.56.1-1.1.2-1.39-.83-1.85s-1.16-.47-1.93.52c-1.49,1.91-2.24,3.44-.8,5.75,1,1.58-.16,3.25-1.58,2.53-2.8-1.41-3.68-.39-4.06,2.17a4.65,4.65,0,0,1-.4,1c-.22-.39-.59-.76-.62-1.17-.07-.71-.22-1.7.16-2.12,1.42-1.57,2.33-3.05,1.08-5.19-.67-1.13,2.53-.86,1.13-1.92-1.14-.86-.65-1.21-.43-2a1.4,1.4,0,0,0-.58-1.26,1.53,1.53,0,0,0-1.42.43c-.82,1.57-1.48,3.21-2.2,4.83-1.66.22-2.32-.59-2.22-2.19s1-3.18-.63-4.87a2.57,2.57,0,0,1,.89-4.13c1.31-.76,2.1-2.41,3.08-3.7a3.75,3.75,0,0,1,4.36-1.51,5.46,5.46,0,0,0,3.46-.08c3.94-1,5.41-3.86,4.93-7.36-.33-2.42,1.52-1.51,1.66-1.31,1.52,2.09,3.2,2.68,5.44,1.1.13-.1.72.19.87.43s.17.9,0,1c-2.24,1.49-2.81,4.33-4.88,5.94-.36.27-.69.58-1,.87.51.13,1.26.52,1.49.33C305.64,191.42,308.6,191.75,311.33,191.06ZM322.1,82.3a49.66,49.66,0,0,1-3.92,4.15,2,2,0,0,1-1.94-.2c-.39-.64-.66-2-.29-2.36a28.19,28.19,0,0,1,4.69-3.5c.2-.12,1.06.82,1.53,1.2C322.14,82,322.2,82.2,322.1,82.3Zm49.13-9.46c.75.92,1.47,1.44,1.63,2.1.12.44-.55,1.07-.87,1.62a18.86,18.86,0,0,1-2.12-2A10.72,10.72,0,0,1,371.23,72.84Zm-7,3c.34,0,.65.52,1.21,1-.67.35-1.11.78-1.43.71a1.27,1.27,0,0,1-.75-1A1.23,1.23,0,0,1,364.22,75.87Zm-12.49-.37c.38-.47,1.56-1,1.77-.78a55.67,55.67,0,0,1,3.84,4.13c.09.1,0,.35,0,.68-.45.12-1.09.51-1.39.33a27.57,27.57,0,0,1-4-2.7A1.69,1.69,0,0,1,351.73,75.5Zm-7,10.35L347,87.78c-1,.52-1.53,1-2,1s-1.07-.58-1.61-.91C343.82,87.21,344.29,86.53,344.75,85.85Zm-7.56,1.87a22.84,22.84,0,0,1-2.53-1.65c.85-.54,1.65-1.42,2.57-1.56,1.47-.22,1.62,1,1.57,2.18,0,.35,0,.7,0,1A3.75,3.75,0,0,1,337.19,87.72Zm1.61,0h.49A2.49,2.49,0,0,1,342,90.32c0,.12-.26.39-.31.37C340.3,90.12,338.53,89.92,338.8,87.77ZM341.18,95c.41.07.93,0,1.2.26a4.52,4.52,0,0,1,.77,1.26,3.4,3.4,0,0,1-1.47-.22C341.36,96.12,341.33,95.48,341.18,95Zm6.34,2.58c-1.43-.31-3.28,1-4.28-1,1.43,0,2.87,0,4.3,0,.3,0,.58.33.88.51C348.11,97.31,347.77,97.67,347.52,97.61Zm6.7-3.86c-2.12,1.25-3.94.46-4.4-2a1.76,1.76,0,0,1,.48-1.43,1.59,1.59,0,0,1,1.41,0,25,25,0,0,1,2.64,1.84,3.38,3.38,0,0,1,.56.68C354.67,93.19,354.51,93.57,354.22,93.75Zm9.28,2.39c-1-.46-2.82-.52-2.59-2.26.09-.64,1.19-1.72,1.54-1.62a16.14,16.14,0,0,1,3.41,2C364.71,95.19,363.83,96.29,363.5,96.14Zm1.25-10.51a21.79,21.79,0,0,0-6.27,3.46,6.38,6.38,0,0,1-2.2.88c-2.36,0-4.41-3-3.67-4.38.2-.37,1-.83,1.23-.71,2.07,1.3,3,0,3.7-1.6.91-2,2.35-2.83,4.32-1.56,1.81,1.18,2.95-1.15,4.57-.63a15.81,15.81,0,0,0,1.55.34c-.11.46-.18.92-.32,1.37A4.06,4.06,0,0,1,364.75,85.63Zm3.87,14.85a17.52,17.52,0,0,1-1.85-1,16.27,16.27,0,0,0,1.49-1.09c1.05-1,2-2.13,3.54-.73a5.55,5.55,0,0,0,.88.53C372.73,99.3,369.85,101,368.62,100.48Zm5.18,3.29c-.1,0-.47-.48-.72-.75a5.62,5.62,0,0,1,1.07-.78c.14-.06.46.31.88.62A6.72,6.72,0,0,1,373.8,103.77Zm1.64-22.52c-.3.47-1.47.64-2.19.53-.39-.06-1-1.29-.89-1.47a22.36,22.36,0,0,1,2.44-2.43c.58.26,1.14.42,1.13.53A6.66,6.66,0,0,1,375.44,81.25Zm7.45-4.66c-.2-1.32-.41-2.64-.62-4,.34,0,.93-.22,1-.11.76,1.35,1.45,2.75,2.05,3.94-.54.7-.78,1.21-1,1.19a4.13,4.13,0,0,1-1.38-.54C382.89,77.06,382.92,76.77,382.89,76.59Zm.94,49.56c-.3-.56-1-1.34-.83-1.63a4.39,4.39,0,0,1,1.8-1.44c.2-.1.69.34,1.39.73Zm2.6-40.71c0-.32.52-.64,1-1.2.36.67.78,1.11.71,1.43a.87.87,0,0,1-1.73-.23Zm.92,15a3.32,3.32,0,0,1,1.62-1.6c.38-.16,1.08.43,2.24,1L388.35,102C388,101.43,387.22,100.74,387.35,100.44Zm5.24,18a10.59,10.59,0,0,1-1.28,2l-1.5-1.2,2.15-2.66C392.3,117.54,392.72,118.1,392.59,118.45Zm6.65-4.35a2.62,2.62,0,0,1-.8,1c-.14.1-.55-.16-.83-.26l1-1.61C398.94,113.68,399.29,114,399.24,114.1Zm-4.32-6.63c-1.4-.48-1.07-1.66-.73-2.7a3.76,3.76,0,0,1,.78-1.41c.43-.46,1.21-1.21,1.49-1.08a9.12,9.12,0,0,1,2.05,1.79,9.9,9.9,0,0,0-1.14,2.05A1.71,1.71,0,0,1,394.92,107.47Zm3.51,23a5.57,5.57,0,0,1-2.13-1.9c-.08-.11.71-.9,1.29-1.63l2.62,2C399.6,129.51,398.8,130.61,398.43,130.48Zm4.2,3a18.67,18.67,0,0,1-2.19.49,1.9,1.9,0,0,1-.4-1,4.58,4.58,0,0,1,1.7-1c.43-.1.95.23,1.44.37Zm3-8.52c-.25-.28-.62-.57-.58-.68a6,6,0,0,1,.75-1.09l.85.69Z"/><path class="cls-1" d="M406,238.76l.05,0v-.08Z"/><path class="cls-1" d="M391.67,336.84h.05v0Z"/><path class="cls-1" d="M374.06,211.19s0,0,0,0h0Z"/><path class="cls-1" d="M339.89,347.82h0v0Z"/><polygon class="cls-1" points="404.93 311.48 404.93 311.47 404.92 311.47 404.93 311.48"/><path class="cls-1" d="M360.83,337.91h0v0Z"/><path class="cls-1" d="M250.91,62.09c-1.47.16-2.95-.11-4.41,0a31.65,31.65,0,0,1-4.67,0c-.59,0-1.19,0-1.78,0-1.13,0-1.19.18-.64,1.14.19.34.56.81.45,1.05-1,2.3-.34,5-1.76,7.2-.12.19-.07.49-.11.74-.5,3.11-.38,6.34-1.58,9.31-.71,1.77,0,3.87-1.4,5.47-.19.21.05.8.07,1.22a2.19,2.19,0,0,1,0,.89,11.88,11.88,0,0,0-1.18,5.09,11.34,11.34,0,0,1-.46,2.94,8.77,8.77,0,0,1-.91,2c-.21.38-.57.3-.78,0a3.48,3.48,0,0,1-.37-.91,62.44,62.44,0,0,1-1.51-7.29,12.44,12.44,0,0,1-.51-2.42c0-1.81-.73-3.46-.87-5.24a31.45,31.45,0,0,0-1.16-5.07c-.42-1.64,0-3.38-.57-5-.46-1.34-.75-2.72-1.12-4.07s-.32-2.91-.94-4.21c-.34-.74-.39-1.21.19-1.77a5.75,5.75,0,0,0,.66-.93c-.41,0-.82-.12-1.24-.13a4,4,0,0,0-1.25.09,10,10,0,0,1-5.67,0,5.72,5.72,0,0,0-2.26,0,4.35,4.35,0,0,0-1.82.7c-.14.09.25.87.32,1.34a1.65,1.65,0,0,1-.05,1c-1.31,2.1-.65,4.59-1.38,6.81-.33,1,0,2.18-.93,3a.72.72,0,0,0-.08.71c.75,1.08.12,2.19-.18,3.1a20,20,0,0,0-1,3.82c-.16,1.22-.65,2.41-.76,3.63-.2,2.07,0,4.18-1.13,6.1-.14.25,0,.67,0,1a1.94,1.94,0,0,1-.19,1c-.61.77-1.08,1.46-.43,2.49.24.38-1,1.91-1.58,2.08a9,9,0,0,0-.21-1.38c-.06-.22-.36-.37-.47-.59a7.47,7.47,0,0,1-.68-1.6c-.52-2.18-1.36-4.32-1.05-6.64a3.37,3.37,0,0,0-.22-1.23c-.41-1.51-1.32-3.08-1.15-4.52.24-2.06-1.88-3.7-.72-5.77,0-.08-.1-.33-.22-.43-.94-.76-.71-1.81-.73-2.81a4.59,4.59,0,0,0-.16-2c-1.49-2.66-1.29-5.61-1.5-8.47-.05-.66-.07-.89-.71-.92-1,0-2-.1-3-.16a27,27,0,0,0-4.74-.19,4.94,4.94,0,0,1-2.1-.08,1.44,1.44,0,0,0-1.19.15c-.51.55.25.81.45,1.21a9.78,9.78,0,0,1,.8,1.82c.64,2.48,1.13,5,1.87,7.44.26.87-.4,1.48-.23,2.12A72.54,72.54,0,0,1,192,84.27c0,.15.2.28.24.43q.3,1.08.54,2.16c.32,1.46.67,2.91.92,4.37.41,2.46.75,4.93,1.14,7.39.25,1.55.49,3.11.83,4.64s.85,3,1.17,4.57c.27,1.3.33,2.65.57,4s.91,2.76.87,4.12.9,2.41.71,3.73c-.21,1.51,1.17,2.55,1.26,4,.08,1.17.1,2.35.1,3.52a5.19,5.19,0,0,1-.28,1.13c.39.08.79.18,1.18.25.82.12,1.64.26,2.46.34a3.8,3.8,0,0,0,1.74,0c.78-.33,1.56.14,2.09,0a4.16,4.16,0,0,1,2.14.08,15.6,15.6,0,0,0,2.27,0,1.35,1.35,0,0,0,.46-.17c-.09-.14-.14-.34-.26-.4-1.24-.64-.72-1.7-.57-2.6.26-1.63.81-3.22,1-4.85a18.38,18.38,0,0,1,1.44-6.53,5,5,0,0,0,.49-2.66,7,7,0,0,1,.71-3.79,2.75,2.75,0,0,0,.32-1.42,5.37,5.37,0,0,1,.57-3.3,7.49,7.49,0,0,0,.54-1.66c.37-2.12.8-4.24,1-6.39a7.11,7.11,0,0,1,1-3,1.45,1.45,0,0,1,.67-.55c.07,0,.32.3.46.49,1.36,2,.53,4.46,1.66,6.48.12.21-.11.59-.08.89a12.67,12.67,0,0,0,.34,1.92,11.34,11.34,0,0,1,.52,1.4c.11,1-.19,2.16.2,3,.47,1,1,1.76.67,3-.14.52.47,1.22.62,1.86s-.07,1.49.27,2c.6.86-.94,1.24-.36,1.62a2.71,2.71,0,0,1,1.11,1.59,7.28,7.28,0,0,1,.08,1.76,4.25,4.25,0,0,0,.22,1.73,17.3,17.3,0,0,1,1.56,5.24c.25,1.39.75,2.79-.45,4a.7.7,0,0,0,.19.43c.66,0,1.33-.09,2-.15s1.59-.41,2.2-.16c1.75.72,3.51.37,5.26.36s2-.46,2.16-2.39c.08-1.09-.29-2.36.14-3.26,1.71-3.48.95-7.58,2.86-11a.6.6,0,0,0,0-.49c-.73-1.21.11-2.21.39-3.29a45.87,45.87,0,0,0,1.14-4.84c.22-1.54-.37-3.22,1-4.51.14-.13,0-.5.08-.74a39.55,39.55,0,0,1,.89-5.13c.75-2.51.6-5.19,1.6-7.62a1.24,1.24,0,0,0,0-.51,10.56,10.56,0,0,1,1-5.11,8.67,8.67,0,0,0,.51-3.45c0-.58-.13-1.38.18-1.7,1-1,.76-2.16.84-3.31a12.83,12.83,0,0,1,.35-1.7,16.39,16.39,0,0,1,.72-3.15c.61-1.37.29-3.08,1.62-4.2C251.76,62.18,251.17,62.06,250.91,62.09Z"/><path class="cls-1" d="M236.24,365.68c0-2.32.14-4.65.13-7A9.08,9.08,0,0,0,236,355c-.64-1.39.62-2.4.26-3.66-.12-.4.45-1,.29-1.39-.61-1.32-.14-2.68-.35-4a10.6,10.6,0,0,1,0-3.85,1.17,1.17,0,0,0-.09-.74c-.65-1.16.37-2.23.15-3.38a22,22,0,0,1-.47-3.69c0-1,.52-2,.32-2.91s.24-1.91.16-2.9a42.51,42.51,0,0,1,0-6.58c.15-2.14-.93-4.25,0-6.39a1.26,1.26,0,0,0-.07-1,2.77,2.77,0,0,1,.23-3.08c.27-.44.09-.71,0-1.12-.57-1.95.11-3.93,0-5.91,0-.53.49-1.36.28-1.58a3.53,3.53,0,0,0-1.79-.71,2.65,2.65,0,0,0-1.48.14,3,3,0,0,1-1.66.05,39.56,39.56,0,0,0-5,0c-.33,0-.92.62-.91.64.78,1.19-.52,2.41.09,3.63a3.18,3.18,0,0,1,0,1.62c-.12,1-.29,1.91-.44,2.87,1.39.55.67,1.73.72,2.63.06,1.16-.27,2.34-.16,3.49a13,13,0,0,1-.22,3.57,7.62,7.62,0,0,0,.31,4,3.38,3.38,0,0,1-1,3.65,10.15,10.15,0,0,1-4.31,2.44,7.48,7.48,0,0,1-3.76,0,4.29,4.29,0,0,1-3-2.61,13,13,0,0,1-1.19-7.16,52.88,52.88,0,0,0,0-6.78c0-.3-.26-.71-.14-.9.71-1.12.34-2.34.26-3.46s.44-2.35.16-3.63a6.64,6.64,0,0,1,.43-3.42c.23-.64.5-.82-.35-.82a13.22,13.22,0,0,0-2.52,0,7.91,7.91,0,0,1-3.39,0c-.81-.17-1.85.22-2.48-.16-1.13-.67-1.33.79-2.17.65s-.41.33-.31.75a8.78,8.78,0,0,1,.5,3.41,12.26,12.26,0,0,0,.06,5.9,5.06,5.06,0,0,0-.37,3.69c.24,1.19-.56,2.47.36,3.57a14.31,14.31,0,0,0,0,6.11c-.78,1.7.71,3.81-.94,5.37,0,0,0,.22,0,.24,1.33.71.33,1.95.66,2.91a7.78,7.78,0,0,1,0,4.68,4.09,4.09,0,0,0,.08,1.93c.29,1.32.64,2.61-.32,3.83a.93.93,0,0,0-.15.81,7.22,7.22,0,0,1,.28,5.83,2.35,2.35,0,0,0,.08,1.48,1.75,1.75,0,0,1,0,1.4,3.24,3.24,0,0,0,0,1.72c.66,2.33.23,4.66.15,7,0,.39-.25.87-.1,1.15a2.78,2.78,0,0,1-.21,2.64c-.27.62-.53,1.25-.8,1.88.76,0,1.51.07,2.26.08s1.69,0,2.54,0h0c1.6,0,3.21,0,4.81,0a4.31,4.31,0,0,0,.95-.29c1.2-.3,1.19-.29.88-1.6a3.11,3.11,0,0,1,0-1,32.34,32.34,0,0,0-.42-4.72,27.19,27.19,0,0,1,.44-5c.08-.73.56-1.59.32-2.17-.6-1.42-.28-2.83-.32-4.24a38.21,38.21,0,0,1-.11-4.42,4.4,4.4,0,0,1,1-3,7.07,7.07,0,0,1,2.75-1.83,14.29,14.29,0,0,1,4.14-.21c3.59.13,5.61,4,5.34,7.2a12.66,12.66,0,0,0-.11,4.22c.28,1.18-.06,2.56.09,3.85,0,.09,0,.23,0,.25-1.13.41-.51,1.07-.28,1.72a5.82,5.82,0,0,1,.37,1.68c.05,1.69,0,3.38,0,5.07a6.09,6.09,0,0,1-.81,3.61.74.74,0,0,0-.07.67.65.65,0,0,0,.63.12c.48-.31.88-.15,1.4-.08a11.31,11.31,0,0,0,4,.13,8.42,8.42,0,0,1,4.4,0c1.2.33,1.33,0,.9-1.3A6.07,6.07,0,0,1,236.24,365.68Z"/><path class="cls-1" d="M210.24,222.24a17.37,17.37,0,0,0-3.76-.2,1.07,1.07,0,0,0-.68.26c-2.19,1.94-4.22,4-3.46,7.31.22,1,.45,1.92.68,2.87a17.92,17.92,0,0,0,2.66-.55,4.85,4.85,0,0,1,3.19-.05c.38.12.94.28,1.2.1.88-.63,1.35-.06,2,.44a4.75,4.75,0,0,1,1.89,4.19c-.25,2.4.86,4.76.07,7.16a1.35,1.35,0,0,0,.19,1,1.54,1.54,0,0,1,0,1.65,1.58,1.58,0,0,0-.1,1.2,4.67,4.67,0,0,1,0,3.65,4.09,4.09,0,0,0,.11,1.72c0,.32.3.69.21.94-.86,2.47-.19,5-.46,7.5a15,15,0,0,0,.3,5.34,1.88,1.88,0,0,1,.07.7,65.78,65.78,0,0,0,.13,14.64,8.52,8.52,0,0,1-.09,2.52c-.18,1.06-.55,2.08-.76,3.13a.83.83,0,0,0,.42.69c2.38.47,4.77.89,7.2.22a4.85,4.85,0,0,1,1.7,0c.49.05,1,.24,1.46.27s.74-.16.56-.77a9.11,9.11,0,0,1-.36-2.19,14.77,14.77,0,0,0-.08-3.53c-.49-1.64,0-3.07.32-4.57.07-.36.11-.93-.09-1.1-.76-.66-.66-1.51-.67-2.34,0-1.94-.08-3.89,0-5.83a39.18,39.18,0,0,0,0-5.63c-.22-2.63.69-5.2.08-7.92-.43-1.87.22-3.94,0-6-.18-1.57.85-3.22.12-4.91-.06-.13.23-.39.31-.62s.27-.65.16-.82c-.8-1.22-.63-2.58-.71-4.26a8.51,8.51,0,0,1,.95-4.51,3.51,3.51,0,0,1,3.35-2.25c1.23,0,2.46-.28,3.72.32,1,.48,2.24-.42,3.35.11.12-.88.22-1.77.36-2.65.05-.32.33-.65.27-.94-.26-1.43.66-3.18-.87-4.24a12,12,0,0,0-3.57-1.68c-1.26-.35-2.69.2-3.94-.52-1.39.6-2.75-.1-4.13-.06s-3-.33-4.28.08c-1.55.5-2.92-.11-4.37,0a3.91,3.91,0,0,0-1.24.13A5.37,5.37,0,0,1,210.24,222.24Z"/><path class="cls-1" d="M213.45,208.49c-.68.56-.7.68.16.62a20.66,20.66,0,0,0,4.75-.33c1.11-.32,2.45.14,3.69.25v.09a4.25,4.25,0,0,0,1,0,3.72,3.72,0,0,0,1.59-.65c.18-.16-.24-.87-.19-1.32.19-2-.62-4,.37-6a1.2,1.2,0,0,0,0-.75,15.61,15.61,0,0,1-.49-6.31,15.78,15.78,0,0,0-.33-3.46,5.7,5.7,0,0,1-.08-1c.11-1,.64-2.12.31-2.9-.5-1.19.24-2.09.21-3.14-.09-3.07-.23-6.14-.06-9.21a11.5,11.5,0,0,0-.21-1.73,7.51,7.51,0,0,1-.07-1.42c.06-.83.22-1.66.29-2.48.36-3.91-.7-7.82,0-11.72a.42.42,0,0,0,0-.25,4.69,4.69,0,0,1-.06-3.38,5.45,5.45,0,0,0,.05-1.76c-.18-2.32,0-4.63.07-6.94a3.86,3.86,0,0,1,.7-1.52c.35-.66.23-.94-.53-.93-1.52,0-3.09.51-4.53-.45,0,0-.14.1-.22.11l-4.08.56-2.22.31a20.73,20.73,0,0,1,.64,2,1.9,1.9,0,0,1-.09,1.23,2.13,2.13,0,0,0,.19,2.36c.13.22.34.47.33.68-.16,1.74-.38,3.47-.56,5.2a13.71,13.71,0,0,0-.22,3.24c.22,1.56.81,3.07,0,4.62-.1.18.06.48.09.72a18.94,18.94,0,0,1,.33,2.45c0,2.54-.13,5.08.08,7.6s-.93,5.11-.12,7.68c.08.25-.25.61-.29.93a6.84,6.84,0,0,0,0,1.5,16.73,16.73,0,0,1,.33,2.7c-.14,2.14-.05,4.27,0,6.41,0,1-.37,2-.36,2.95a26.5,26.5,0,0,0,.41,3.19,20.73,20.73,0,0,1,.4,3.2,50.81,50.81,0,0,1-.48,5.23A3.06,3.06,0,0,1,213.45,208.49Z"/><path class="cls-1" d="M163.64,305.17a16.14,16.14,0,0,0-6.57-.11c-5.36.94-10.63,2.41-16.16,2.15a8,8,0,0,0-2.54.86c-.83.28-2,1-2.46.72-2.2-1.43-3.87.41-5.76.66-1.61.21-3.17.77-4.78,1-2.73.32-2.51.29-3,3.12-1.36,8-1,10.43-10,11.53a11.87,11.87,0,0,1-4.6-.06,11.07,11.07,0,0,0-5.48-.09c-6.52,1.88-13.13.67-19.68.93a7.61,7.61,0,0,1-3.2-.43,6.68,6.68,0,0,0-4.78-.1c-2,.57-11-3.82-11.88-5.58a8.64,8.64,0,0,1-.25-1.06c-1.61-4.8-1.32-9.69-.74-14.61.38-3.25,1.26-6.73.49-9.74-1-3.87-.76-7.6-.78-11.41,0-4.28,1-8.49,0-12.87-1.26-6,1-11.93,1.21-17.94.05-1.55,1.72-3.06,2.7-4.55a4.24,4.24,0,0,1,1.1-.83,3.26,3.26,0,0,0-1-.34q-5.5,0-11,.14c-.66,0-1.53.48-2,.21-2.19-1.45-4.37-.59-6.66-.44a81.4,81.4,0,0,1-13.25-.09c-4.24-.41-8.64,2-12.73-.74a1.27,1.27,0,0,0-1,.08c-2.78,1.53-5.79.49-8.67.78-.9.09-2,0-.77,1.43,3.87,4.35,4.84,9.51,4.67,15.23-.13,4.13-.89,8.4.91,12.48.4.91,0,2.18-.09,3.27-.25,2-.77,3.92-.86,5.9-.16,3.31-.11,6.63-.07,9.94s.16,6.41.1,9.63c-.11,5.1.58,10.2,0,15.33-.35,3.19.1,6.41.06,9.62,0,2.24,1.53,4.45,1.88,6.75a17.21,17.21,0,0,0,3.1,6.84c2.35,3.62,5.68,6.21,8.44,9.37,3.36,3.87,6.93,7.56,10.3,11.43,3,3.39,7.36,3.93,11.15,5.09,4.43,1.34,9.39.86,14.1,1.36s9.67-1.27,14.5,0a2.47,2.47,0,0,0,1.63-.15c2.11-1,4-.66,6.31-.18s5-.6,7.48-.64c2.67,0,5.35.54,8,.54,2.9,0,6-1.1,8.65-.4,4.67,1.24,9.33-.13,13.68,1.06,4.39-.46,8.55-.82,12.68-1.39a6.14,6.14,0,0,0,3.46-1.5c3.77-4,8.95-6.24,12.23-10.8a117.17,117.17,0,0,1,7.75-8.95c4-4.47,8.39-8.64,8.27-15.39,0-1.72,1-3.45,1.46-5.19.23-.86.66-2,.33-2.61-1.47-2.9-.7-5.58,0-8.49C170.79,311,168.21,306.34,163.64,305.17ZM44.83,268.57l1.69,1.27L45,271.55c-.4-.46-1.11-.9-1.13-1.37S44.49,269.1,44.83,268.57Zm-1.53,7.58a6.53,6.53,0,0,1,1.7.54,6.7,6.7,0,0,1-1.75.5,4.6,4.6,0,0,1-1.34-.54A4.75,4.75,0,0,1,43.3,276.15ZM45.24,284c.27,0,.9,2,.6,2.31a52.5,52.5,0,0,1-5.46,4c-.11.07-.77-.29-.8-.5C39.2,287.57,42.57,283.7,45.24,284ZM36,275.22c.17-.1.73.42,1.81,1.08a26.12,26.12,0,0,1-2.7.88c-.27.05-.61-.26-.91-.4A13.15,13.15,0,0,1,36,275.22Zm-7.73-14.34c.24-.11.89.67,1.58,1.23-.62.75-1.17,1.69-1.37,1.62a9.86,9.86,0,0,1-2-1.31A8.28,8.28,0,0,1,28.28,260.88Zm-2.8,6.72,2.25,1.92c-1,.51-1.53,1-2,1s-1.07-.57-1.6-.88C24.55,269,25,268.27,25.48,267.6ZM26.41,300a19.44,19.44,0,0,1-2-1.89c-.1-.12.12-.53.19-.81a3.81,3.81,0,0,1,1.45.47,9.28,9.28,0,0,1,1.23,1.69C26.86,299.71,26.48,300,26.41,300Zm2.19-16.61a29.21,29.21,0,0,1-2.25-2.7c-.05-.09,1-1.21,1.27-1.11A3.25,3.25,0,0,1,29.36,281C29.56,281.37,29,282.12,28.6,283.36Zm1.79-12.54A13.25,13.25,0,0,1,33,272.15a11.54,11.54,0,0,1-2.37,1.54c-.21.06-1-.86-1.05-1.36A2.36,2.36,0,0,1,30.39,270.82Zm3.88,30,.33,2.05-.75.38c.44.52.94,1.51,1.32,1.46a2.76,2.76,0,0,0,1.9-1.24c.47-.91.3-2.16.79-3A1.64,1.64,0,0,1,40.6,300c1.06.87.55,1.5-.14,2.18-.26.26-.47.65-.78.76-2,.69-.5,4.11-2.87,4-1.68-.08-3.31-1.25-5-2-.66-.29-1.29-.67-1.93-1Zm2.92,12.8A17.09,17.09,0,0,1,35.67,317c-.93-1.64-1.6-2.39-1.79-3.24-.25-1.11,0-2.22,1.54-2.28S37.37,312.43,37.19,313.61Zm-5.46,15.94a1.25,1.25,0,0,1,1.68-1.42,19.32,19.32,0,0,1,3.44,2.26l-4.33,1.94A14.3,14.3,0,0,1,31.73,329.55Zm5.36,8.21c-.71-.07-1.31-1.3-2-2a7.05,7.05,0,0,1,2.13-1c.69-.06,1.43.43,2.9.93C38.66,336.76,37.82,337.83,37.09,337.76Zm2.75-25.22a3,3,0,0,1-1.34-1.12,28.36,28.36,0,0,1,2.24-2.77,12,12,0,0,1,.81,2.44A1.3,1.3,0,0,1,39.84,312.54Zm4.69-1.13c-1.36.41-1.86-.67-1.84-1.93,0-1.08-.06-2.44,1.49-2.3.76.07,1.45,1,2.56,1.77C45.77,310.08,45.28,311.19,44.53,311.41Zm34.1,23.36c.62.09,1.67,1.2,1.56,1.57-.31,1.05-1.11,2-2.28,3.81A23.58,23.58,0,0,1,77,336.9C76.87,335.74,77.16,334.55,78.63,334.77Zm-4.7,10.47a11.1,11.1,0,0,1,1.91,0c.33,0,.63.35,1,.47.66.22,1.34.39,2,.59l-1.85.61c-.91,0-1.34.12-1.63,0a8.35,8.35,0,0,1-1.48-1.12C73.79,345.66,73.89,345.25,73.93,345.24ZM68.06,335c.32-.06.75.37,1.4.75-.57.49-.9,1-1.23,1a.88.88,0,0,1-.17-1.75Zm-4.45,4.73c.4.23.65.74,1.15,1.34a15.69,15.69,0,0,1-2.24,1.22c-.15.06-.82-.6-.83-.95C61.64,340.21,62.83,339.25,63.61,339.68ZM57.1,324.37a27.08,27.08,0,0,1,2,2.54c.07.12-.54.66-.84,1a26,26,0,0,1-2.08-2C56.07,325.82,56.59,325.2,57.1,324.37Zm3.15,29.35c-.08.29-.56.73-.66.68-.75-.36-1.74-.66-2.09-1.29a4.55,4.55,0,0,1,0-2.46c0-.14.6-.21.92-.32A2.78,2.78,0,0,1,60.25,353.72Zm-6.92-54,1.16,1c-.17.3-.38.74-.43.72a2.72,2.72,0,0,1-1.2-.64C52.75,300.62,53.16,300.06,53.33,299.7Zm-1.26,57c-.84-.08-1.59-1.07-2.38-1.67,1.48-1.47-.21-2.66-.29-4,0-.59.47-1.7.79-1.73.78-.06,2,.15,2.31.67a32.23,32.23,0,0,1,1.72,4.93C53.42,355.58,52.69,356.72,52.07,356.67Zm1.69-19.93c.12-1.81,1.24-3.14,3-2.91a8.67,8.67,0,0,1,1.3,2.75,2.5,2.5,0,0,1-2.86,2.5C53.66,339,53.68,337.82,53.76,336.74Zm6.81,22.12c-1,.33-2.24.22-3.11.73s-1.07,2.46-2.17,1c-.41-.54.6-3,1.55-3.51s2.78,0,4.21.15c.1,0,.18.28.37.6C61.17,358.15,61,358.74,60.57,358.86ZM76.4,353.5A26.4,26.4,0,0,1,77,358c0,.64-.33,1.78-.7,1.86a8.13,8.13,0,0,1-3.14-.12,2.78,2.78,0,0,1,0-1.79c.56-1,2.23-1.71.25-2.93-2.16-1.35-3.36-1.31-4.48.51a28.77,28.77,0,0,0-1.12,3c-.71,1.5-1.94,1.87-3,1-1-.76-1.38-1.6-.45-2.77s1.92-2.6,2.81-4c1.29-2,.64-3.44-1.73-3.66-1.63-.16-3.3,0-4.93-.15a1.37,1.37,0,0,1-.95-1c0-.34.59-1,.86-1,1.59.19,2.85-2,4.59-.63.16.12,5.33,2.75,5.49,2.84A25.73,25.73,0,0,0,74.19,351c.43.14,1.17-.37,1.64-.74,1.6-1.26,1.59-1.29,2.22,1.07C77.13,351.73,76.07,352,76.4,353.5Zm12.28-1.6c-1.76.6-3.84.5-4.84,2.53-1.91-1.06-4.85-.24-5.73-3.14,1.9-1,3.35-3.49,6.15-1.41.62.46,2.27-.61,3.47-.69.43,0,1.07.75,1.31,1.29C89.2,350.85,89,351.81,88.68,351.9Zm4.1-6.72,2.54-2.41c.12.13.36.34.33.38-.54.93-1.11,1.85-1.67,2.76Zm3.56,15.74c-.4.14-1.45-.37-1.51-.72a10,10,0,0,1,.56-2.9c1.11,1.06,1.85,1.54,2.2,2.23C97.71,359.75,96.89,360.73,96.34,360.92ZM99,345.79a13.79,13.79,0,0,1-1.83.95l-1-.29a6.77,6.77,0,0,1,.79-1.84,2.4,2.4,0,0,1,1.59-.8c.37,0,.86.58,1.09,1C99.71,345,99.28,345.58,99,345.79Zm.3-5.46c.29-.34.53-.9.87-1s.75.38,1.43.77c-.6.5-.94,1-1.26,1S99.61,340.61,99.26,340.33ZM102.33,360l-2-2.18,2.18-1.4,1.92,1.57Zm6.26-11.15a9.41,9.41,0,0,0-3.78,4.88c-.15.39-1.2.42-1.84.61a7.43,7.43,0,0,1-.45-2,2.26,2.26,0,0,1,.81-1.36c1.09-.9,1.18-1.62.06-2.62a2.5,2.5,0,0,1-.26-3.86c1.26-1.46,2.65-1.2,3.73.59.59,1,1.36,1.88,2.06,2.83C108.82,348.21,108.81,348.72,108.59,348.85Zm1-3.41c-.55.39-1.8-1.78-1.55-2.95.08-.38.64-.65,1-1,.48.77,1,1.55,1.39,2.22C110,344.55,110,345.19,109.59,345.44Zm6.17,12.23a1.28,1.28,0,0,1-1-.78c-.08-.31.36-.75.73-1.4.51.57,1,.89,1,1.23S116.05,357.66,115.76,357.67ZM149,343.35c-.13.11-.6-.21-.91-.33l1-1.3.75.5A5.22,5.22,0,0,1,149,343.35Z"/><path class="cls-1" d="M109.39,133.49c2.15-.28,4.28-1,6.41-1a64.75,64.75,0,0,0,16.73-2.15c3.49-.88,7.2-.9,10.82-1.29,1.33-.15,3.54,1.87,3.61-1.51,0-.25,1.22-.61,1.9-.69,3.43-.41,6.86-.8,10.3-1.08a10.53,10.53,0,0,0,9.61-8.82c.54-3,1.94-5.93.06-9a2,2,0,0,1,.2-1.57,5.49,5.49,0,0,0,.13-5.26,5.62,5.62,0,0,1-.08-2.59c.22-2.9,1.12-5.92.57-8.65-.74-3.7.32-7,.65-10.53a5.66,5.66,0,0,0,.19-2c-1.64-5.55.06-10.26,3.57-14.52a3.46,3.46,0,0,1,.93-.57,3.82,3.82,0,0,0-1.26-.57c-2.39-.08-4.91.38-7.14-.24-2.43-.68-4.89,1.31-6.8,0-2.57-1.75-4.52.35-6.75.28-2.74-.09-5.47-.34-8.08.92a3.14,3.14,0,0,1-2.18,0c-4.64-1.69-9.46-.74-14.18-1.05-2.77,0-5.53,0-8.29,0a27,27,0,0,0-3.2.43,29.21,29.21,0,0,1,1.81,2.63c1.29,2.35,3.83,4.26,3.3,7.28-.44,2.49,1.74,5.49-1.38,7.48a.93.93,0,0,0,0,.75c2.59.95,1.45,3.14,1.4,4.75-.16,4.35-.71,8.68-.94,13-.19,3.52,1.35,7,0,10.63-.32.85.5,2.08.59,3.15.22,2.55.38,5.11.42,7.67a3.12,3.12,0,0,1-.76,2c-3.23,3.49-6.34,7.14-11,8.82a6,6,0,0,0-1.89,1,1.72,1.72,0,0,0-.5,1.42A1.48,1.48,0,0,0,109.39,133.49Z"/><path class="cls-1" d="M111.81,182.1l0,.27c3.42-.44,6.84-.82,10.24-1.35,4.47-.69,8.92-1.47,13.36-2.3,1.78-.33,3.49-1,5.27-1.31,4.73-.73,9.62-.85,14.2-2.12,3.64-1,7.7-.17,11-2.7,1.39-1.06,2.42-1.87,2.81-4.1a4.53,4.53,0,0,1,1.11-2.4,47.7,47.7,0,0,1,5-4.14c2.23-1.57,4.59-3,6.85-4.48a5.57,5.57,0,0,0,1-1.25l-1.37-.6c-2.43-1-4.75-1.46-7.33-.06-1.05.56-2.54,1.29-4.09.33a4,4,0,0,0-2.69-.09c-8.27,1.79-16.52,3.65-24.78,5.49a45.74,45.74,0,0,1-4.76,1c-4.15.46-8.32.83-12.48,1.16-2,.16-3.12,1.09-2.93,3.13s-.88,3.3-1.91,4.88A14,14,0,0,1,114,177a43.44,43.44,0,0,0-6,3.71,3.73,3.73,0,0,0-.72.81,3.84,3.84,0,0,0,1.24.57C109.6,182.15,110.7,182.1,111.81,182.1Z"/><path class="cls-1" d="M127.33,155.76c8.31-1.66,16.59-3.43,25-4.59,4.79-.67,9.76-.7,14.15-3.2,3.31.6,2.65-1.24,2.36-3.35a4.89,4.89,0,0,1,1.46-3.32,22.68,22.68,0,0,1,7.32-5.67c2.11-1,3.88-2.67,5.75-4.1.13-.1-.12-1-.18-1-2.61.06-5.38-.32-7.81.42a28.42,28.42,0,0,1-9.61,1.51,6.38,6.38,0,0,0-2.19.14c-6.36,2.08-13.26,1.55-19.55,4.24-2.56,1.09-5.69.87-8.56,1.2-3.61.42-7.22.76-10.82,1.2-1.46.18-2.48,1.13-2.22,2.61.74,4.2-3.48,5.73-4.6,8.9-2.92.29-4.55,2.81-6.93,4a38.91,38.91,0,0,0-3.62,2.38l4.78,1C117,157.38,122.2,156.78,127.33,155.76Z"/><path class="cls-1" d="M174.23,259.5c1.67-1.11,3.49-2,5.11-3.17a35.62,35.62,0,0,0,3.32-3.08A28.89,28.89,0,0,0,178,252a8.8,8.8,0,0,0-3.1.76c-1.38.41-2.77,1.27-4.12,1.21-6.46-.27-12.54,2-18.86,2.53-2,.17-4.34.23-5.72,1.35-2.47,2-5.12,1.58-7.8,1.8-4.34.35-8.68.78-13,1.13-2,.16-2.89,1-3,3.08-.3,4.28-2.83,7.19-6.32,9.38-1.69,1.06-3.45,2-5.09,3.15-1.21.83-2.29,1.87-3.43,2.82l4.34.33.08.33a68.92,68.92,0,0,1,8-1.45A75.78,75.78,0,0,0,138,275.23c5.1-1.61,10.69-1.68,16.06-2.46,4.82-.71,9.68-1.23,14.21-3.26.68-.31,1.19-.21.95-1.3C168.26,263.85,171.14,261.57,174.23,259.5Z"/><path class="cls-1" d="M175.11,210.53c2.38-1.68,4.83-3.26,7.2-4.95.2-.14.09-1.15,0-1.16-2.11-.36-4.62-1.52-6.29-.79-5.35,2.36-11.14,1.38-16.56,2.89-5.2,1.46-10.73,1.51-15.81,3.61a14.54,14.54,0,0,1-4.23.79q-7.06.68-14.14,1.19c-2,.15-3.11,1.1-2.9,3.15s-.92,3.29-1.94,4.86a13.59,13.59,0,0,1-6.46,5.52,41.88,41.88,0,0,0-6,3.7,4.41,4.41,0,0,0-.72.82,4.09,4.09,0,0,0,1.25.6c1.1.08,2.2,0,4.33,0,3.69-.35,8.4-.73,13.1-1.28,5.91-.69,11.62-2.44,17.47-3.53,8.29-1.53,16.81-2.19,24.85-5.08,1.39-.5,1-.85.68-1.79a4.28,4.28,0,0,1,1.43-4.94C171.91,212.9,173.49,211.68,175.11,210.53Z"/><path class="cls-1" d="M181,228.52a6.84,6.84,0,0,0-6.77,0,10.72,10.72,0,0,1-4.72,1.09c-6.42.06-12.53,1.87-18.76,3a26.67,26.67,0,0,0-5.71,1.42,18.54,18.54,0,0,1-6.39,1.23c-4.53.3-9.06.76-13.58,1.15a2.63,2.63,0,0,0-2.74,2.79c-.07,1.24,0,2.87-.7,3.64-2.29,2.44-3.52,5.9-7.36,7-2.18.6-4.07,2.34-6,3.62a5.15,5.15,0,0,0-1,1.2,7.8,7.8,0,0,0,1.52.41c1.1.06,2.21,0,3.31,0,0,.12,0,.24.07.37,2.67-.49,5.31-1.09,8-1.43,4-.51,8-.57,11.9-1.31s7.66-1.84,11.63-2.42c5.86-.85,11.66-2.29,17.58-3.05a27.23,27.23,0,0,0,7.69-2.38c.45-.2-.19-2.54-.1-3.88a3.14,3.14,0,0,1,1-1.88,54,54,0,0,1,5-4.17c2.22-1.58,4.6-2.95,6.87-4.45a6.07,6.07,0,0,0,1.07-1.23C182.18,229,181.58,228.81,181,228.52Z"/><path class="cls-1" d="M174.79,277.12c-1.39.38-2.79,1.26-4.14,1.16-6.48-.45-12.49,2.31-18.86,2.59a13.33,13.33,0,0,0-6.18,1.64,10.29,10.29,0,0,1-5.14,1.39c-4.71.32-9.42.7-14.12,1.18-2.81.28-3.51,1.21-4,3.94a9.72,9.72,0,0,1-1.4,3.36,14.69,14.69,0,0,1-7.12,6.38c-2,.76-3.59,2.44-5.36,3.72l-1.13.86a9.13,9.13,0,0,0,1.52.38c.92.06,1.84,0,2.76,0,0,.14,0,.28.07.41,2.84-.5,5.67-1.16,8.53-1.46,5.93-.6,12-.59,17.5-3.26a2.21,2.21,0,0,1,1.09-.12c5.91.49,11.47-1.68,17.2-2.5,3.45-.5,7.26-.26,10.53-2.37,1.91-1.24,2.2-.94,2.16-3.78a4.45,4.45,0,0,1,1.91-3.77c2.9-2.17,5.94-4.18,8.91-6.27,1.39-1,2.74-2,4.12-3.05a34.36,34.36,0,0,0-5.2-1.22A11.09,11.09,0,0,0,174.79,277.12Z"/><path class="cls-1" d="M125.79,205.16c6.49-1,12.71-3.28,19.27-4,5.38-.64,10.75-1.5,16.08-2.47,2.64-.48,5.19-1.45,7.78-2.19,0-1.52-.14-3,0-4.55a2.48,2.48,0,0,1,.85-1.37c2.1-2,3.72-4.36,6.8-5.34,2.15-.69,3.93-2.56,5.82-4,.18-.14,0-1.13-.06-1.15-2.11-.35-4.69-1.53-6.28-.74-5.14,2.57-10.76,1.35-16,2.75-5.54,1.47-11.38,1.81-16.79,4a7.52,7.52,0,0,1-3.19.48c-5-.27-9.8.62-14.67,1.21-2,.24-3.12,1.12-3,3.15.33,4-2.92,6.11-5,8.59-1.55,1.82-4.29,2.61-6.47,3.91-1.24.74-2.42,1.58-3.63,2.38l4,.81C116.39,206.11,121.12,205.85,125.79,205.16Z"/></svg>